<?xml version="1.0" encoding="UTF-8" standalone="no"?>
<!DOCTYPE svg PUBLIC "-//W3C//DTD SVG 1.1//EN" "http://www.w3.org/Graphics/SVG/1.1/DTD/svg11.dtd">
<svg width="100%" height="100%" viewBox="0 0 2316 360" version="1.1" xmlns="http://www.w3.org/2000/svg" xmlns:xlink="http://www.w3.org/1999/xlink" xml:space="preserve" xmlns:serif="http://www.serif.com/" style="fill-rule:evenodd;clip-rule:evenodd;stroke-linejoin:round;stroke-miterlimit:2;">
    <g transform="matrix(1,0,0,1,-574.561,-29803.2)">
        <g transform="matrix(5.55556,0,0,5.55556,0,0)">
            <g transform="matrix(1,0,0,1,0,5013.03)">
                <path d="M126.35,364.606L114.989,364.606L114.989,398.896L126.35,398.896L126.35,364.606ZM132.203,398.964L132.203,404.748L103.421,404.748L103.421,358.685L132.203,358.685L132.203,364.537L137.918,364.537L137.918,398.964L132.203,398.964Z" style="fill:rgb(224,225,224);fill-rule:nonzero;"/>
            </g>
        </g>
        <g transform="matrix(5.55556,0,0,5.55556,0,0)">
            <g transform="matrix(1,0,0,1,166.767,5411.92)">
                <path d="M0,-22.859L-11.361,-22.859L-11.361,-11.567L-5.715,-11.567L-5.715,-17.213L0,-17.213L0,-22.859ZM5.853,0.069L5.853,5.853L-17.213,5.853L-17.213,0.069L-22.928,0.069L-22.928,-22.997L-17.213,-22.997L-17.213,-28.712L5.853,-28.712L5.853,-22.997L11.568,-22.997L11.568,-17.144L5.853,-17.144L5.853,-11.429L-5.646,-11.429L-5.646,-5.714L-11.361,-5.714L-11.361,0.001L5.715,0.001L5.715,-5.852L11.568,-5.852L11.568,0.069L5.853,0.069Z" style="fill:rgb(224,225,224);fill-rule:nonzero;"/>
            </g>
        </g>
        <g transform="matrix(5.55556,0,0,5.55556,0,0)">
            <g transform="matrix(1,0,0,1,213.106,5406.21)">
                <path d="M0,-11.429L0,0.001L-5.784,0.001L-5.784,11.568L-17.421,11.568L-17.421,0.001L-23.101,0.001L-23.101,-11.429L-28.851,-11.429L-28.851,-22.997L-17.282,-22.997L-17.282,-11.498L-11.533,-11.498L-11.533,-0.137L-5.853,-0.137L-5.853,-22.997L5.715,-22.997L5.715,-11.429L0,-11.429Z" style="fill:rgb(224,225,224);fill-rule:nonzero;"/>
            </g>
        </g>
        <g transform="matrix(5.55556,0,0,5.55556,0,0)">
            <g transform="matrix(1,0,0,1,0,5013.03)">
                <path d="M247.602,364.606L236.241,364.606L236.241,398.896L247.602,398.896L247.602,364.606ZM253.455,398.964L253.455,404.748L230.389,404.748L230.389,398.964L224.674,398.964L224.674,364.537L230.389,364.537L230.389,358.685L253.455,358.685L253.455,364.537L259.17,364.537L259.17,398.964L253.455,398.964Z" style="fill:rgb(224,225,224);fill-rule:nonzero;"/>
            </g>
        </g>
        <g transform="matrix(5.55556,0,0,5.55556,0,0)">
            <g transform="matrix(1,0,0,1,0,5036.02)">
                <path d="M288.157,353.039L276.796,353.039L276.796,375.899L288.157,375.899L288.157,353.039ZM294.01,375.967L294.01,381.751L276.796,381.751L276.796,393.25L265.228,393.25L265.228,347.186L294.01,347.186L294.01,352.901L299.725,352.901L299.725,375.967L294.01,375.967Z" style="fill:rgb(224,225,224);fill-rule:nonzero;"/>
            </g>
        </g>
        <g transform="matrix(5.55556,0,0,5.55556,0,0)">
            <g transform="matrix(1,0,0,1,323.136,5388.99)">
                <path d="M0,22.998L0,28.781L-17.283,28.781L-17.283,22.93L-5.853,22.93L-5.853,17.283L-11.568,17.283L-11.568,11.568L-17.283,11.5L-17.283,-0.068L-11.568,-0.068L-11.568,-5.783L5.783,-5.783L5.783,0.07L-5.716,0.07L-5.716,5.716L0,5.716L0,11.43L5.783,11.362L5.783,22.998L0,22.998Z" style="fill:rgb(224,225,224);fill-rule:nonzero;"/>
            </g>
        </g>
        <g transform="matrix(5.55556,0,0,5.55556,0,0)">
            <g transform="matrix(1,0,0,1,342.788,5418.88)">
                <path d="M0,-53.261L15.963,-53.261L15.739,-15.664L15.889,-15.664L31.405,-53.261L47.293,-53.261L36.253,0L26.407,0L35.209,-42.519L35.059,-42.519L16.783,0L8.429,0L7.758,-42.519L7.608,-42.519L-1.194,0L-11.04,0L0,-53.261Z" style="fill:rgb(40,149,229);fill-rule:nonzero;"/>
            </g>
        </g>
        <g transform="matrix(5.55556,0,0,5.55556,0,0)">
            <g transform="matrix(1,0,0,1,400.373,5385.69)">
                <path d="M0,13.129L10.444,13.129L10.294,-10.816L10.145,-10.816L0,13.129ZM5.52,-20.066L18.798,-20.066L21.857,33.195L10.668,33.195L10.518,21.931L-3.654,21.931L-8.429,33.195L-19.619,33.195L5.52,-20.066Z" style="fill:rgb(40,149,229);fill-rule:nonzero;"/>
            </g>
        </g>
        <g transform="matrix(5.55556,0,0,5.55556,0,0)">
            <g transform="matrix(1,0,0,1,440.652,5395.61)">
                <path d="M0,-6.714L4.476,-6.714C9.624,-6.714 12.98,-8.951 14.174,-14.695C15.218,-19.619 13.278,-22.08 8.28,-22.08L3.208,-22.08L0,-6.714ZM-5.892,-29.988L13.95,-29.988C22.827,-29.988 27.153,-25.438 25.288,-16.262C23.796,-9.101 19.992,-4.401 13.652,-3.133L13.652,-2.984C20.812,-2.014 20.962,2.014 18.798,13.278C17.68,18.947 17.456,21.708 19.246,22.826L19.172,23.274L7.534,23.274C6.714,21.782 6.938,19.768 7.31,17.679L9.176,7.459C9.846,3.281 8.578,0.746 4.178,0.746L-1.566,0.746L-6.191,23.274L-16.933,23.274L-5.892,-29.988Z" style="fill:rgb(40,149,229);fill-rule:nonzero;"/>
            </g>
        </g>
        <g transform="matrix(5.55556,0,0,5.55556,0,0)">
            <g transform="matrix(0.202967,-0.979186,-0.979186,-0.202967,496.668,5408.32)">
                <path d="M-17.396,31.89L36.997,31.89L39.178,21.371L-15.215,21.371L-17.396,31.89Z" style="fill:rgb(40,149,229);fill-rule:nonzero;"/>
            </g>
        </g>
        <g transform="matrix(5.55556,0,0,5.55556,0,0)">
            <g transform="matrix(1,0,0,1,496.075,5372.48)">
                <path d="M0,39.537C6.34,39.537 8.504,34.091 11.488,19.769C14.472,5.521 14.546,0.001 8.206,0.001C1.79,0.001 -0.298,5.521 -3.282,19.769C-6.266,34.091 -6.34,39.537 0,39.537M9.846,-7.906C25.959,-7.906 25.661,3.581 22.23,19.769C18.798,35.955 14.546,47.443 -1.64,47.443C-17.753,47.443 -17.455,35.955 -14.024,19.769C-10.592,3.581 -6.34,-7.906 9.846,-7.906" style="fill:rgb(40,149,229);fill-rule:nonzero;"/>
            </g>
        </g>
    </g>
</svg>
