<?xml version="1.0" encoding="UTF-8" standalone="no"?>
<!DOCTYPE svg PUBLIC "-//W3C//DTD SVG 1.1//EN" "http://www.w3.org/Graphics/SVG/1.1/DTD/svg11.dtd">
<svg width="100%" height="100%" viewBox="0 0 10669 1409" version="1.1" xmlns="http://www.w3.org/2000/svg" xmlns:xlink="http://www.w3.org/1999/xlink" xml:space="preserve" xmlns:serif="http://www.serif.com/" style="fill-rule:evenodd;clip-rule:evenodd;stroke-linejoin:round;stroke-miterlimit:2;">
    <g transform="matrix(1,0,0,1,1.34106,-11697.6)">
        <g transform="matrix(5.55556,0,0,5.55556,0,0)">
            <g transform="matrix(-0.391987,-0.919971,-0.919971,0.391987,10.4117,2166.54)">
                <path d="M0.411,11.104L3.828,9.949C3.828,9.949 3.702,3.402 3.618,-0.518L0.618,-0.454C0.701,3.416 0.848,10.947 0.848,10.957" style="fill:rgb(228,228,228);fill-rule:nonzero;"/>
            </g>
        </g>
        <g transform="matrix(5.55556,0,0,5.55556,0,0)">
            <g transform="matrix(1,0,0,1,293.581,2306.99)">
                <path d="M0,-198.232C-3.965,-198.349 -8.017,-198.415 -12.043,-198.426L-12.035,-201.426C-7.981,-201.415 -3.903,-201.348 0.089,-201.23L0,-198.232ZM-29.109,-198.168L-29.208,-201.166C-25.161,-201.298 -21.083,-201.381 -17.087,-201.414L-17.063,-198.414C-21.034,-198.381 -25.087,-198.299 -29.109,-198.168M17.04,-197.376C13.097,-197.657 9.052,-197.884 5.017,-198.052L5.142,-201.05C9.206,-200.88 13.281,-200.651 17.253,-200.368L17.04,-197.376ZM-46.161,-197.33L-46.356,-200.324C-42.307,-200.587 -38.236,-200.807 -34.256,-200.976L-34.129,-197.978C-38.086,-197.81 -42.134,-197.592 -46.161,-197.33M-63.167,-195.962L-63.452,-198.949C-59.388,-199.336 -55.329,-199.68 -51.389,-199.972L-51.167,-196.98C-55.087,-196.69 -59.125,-196.347 -63.167,-195.962M34.021,-195.776C30.096,-196.237 26.067,-196.644 22.044,-196.983L22.296,-199.973C26.352,-199.63 30.415,-199.22 34.372,-198.754L34.021,-195.776ZM-80.113,-194.11L-80.48,-197.087C-76.449,-197.584 -72.406,-198.043 -68.464,-198.452L-68.154,-195.467C-72.078,-195.06 -76.102,-194.604 -80.113,-194.11M50.9,-193.364C46.996,-194.023 42.993,-194.626 39.001,-195.153L39.394,-198.128C43.421,-197.595 47.461,-196.988 51.4,-196.322L50.9,-193.364ZM-97.042,-191.8L-97.486,-194.767C-93.482,-195.365 -89.446,-195.931 -85.487,-196.45L-85.098,-193.475C-89.038,-192.96 -93.057,-192.396 -97.042,-191.8M67.619,-190.061C63.775,-190.934 59.812,-191.751 55.839,-192.488L56.386,-195.437C60.398,-194.693 64.401,-193.869 68.283,-192.987L67.619,-190.061ZM-113.912,-189.072L-114.426,-192.027C-110.39,-192.729 -106.369,-193.394 -102.473,-194.003L-102.01,-191.039C-105.889,-190.432 -109.893,-189.771 -113.912,-189.072M-130.716,-185.951L-131.297,-188.894C-127.339,-189.675 -123.335,-190.433 -119.395,-191.146L-118.86,-188.194C-122.785,-187.484 -126.774,-186.729 -130.716,-185.951M84.105,-185.787C80.325,-186.895 76.42,-187.945 72.498,-188.908L73.213,-191.822C77.178,-190.848 81.127,-189.786 84.949,-188.666L84.105,-185.787ZM-147.45,-182.462L-148.093,-185.392C-144.146,-186.258 -140.16,-187.102 -136.244,-187.901L-135.645,-184.961C-139.546,-184.167 -143.518,-183.325 -147.45,-182.462M100.271,-180.46C96.583,-181.818 92.757,-183.122 88.9,-184.332L89.799,-187.194C93.703,-185.969 97.575,-184.65 101.308,-183.274L100.271,-180.46ZM-164.111,-178.628L-164.813,-181.545C-160.892,-182.489 -156.924,-183.415 -153.019,-184.296L-152.358,-181.371C-156.249,-180.492 -160.204,-179.569 -164.111,-178.628M-180.695,-174.464L-181.454,-177.367C-177.548,-178.387 -173.6,-179.39 -169.716,-180.349L-168.997,-177.437C-172.867,-176.481 -176.803,-175.481 -180.695,-174.464M116.007,-174.008C112.411,-175.643 108.691,-177.215 104.951,-178.682L106.046,-181.475C109.835,-179.989 113.604,-178.395 117.248,-176.739L116.007,-174.008ZM-197.198,-169.986L-198.011,-172.875C-194.102,-173.974 -190.172,-175.052 -186.331,-176.078L-185.557,-173.179C-189.385,-172.157 -193.302,-171.083 -197.198,-169.986M131.187,-166.37C127.74,-168.283 124.157,-170.139 120.536,-171.887L121.84,-174.588C125.512,-172.817 129.146,-170.934 132.643,-168.993L131.187,-166.37ZM-213.618,-165.204L-214.483,-168.077C-210.645,-169.232 -206.735,-170.382 -202.863,-171.495L-202.035,-168.612C-205.895,-167.503 -209.792,-166.356 -213.618,-165.204M-229.949,-160.123L-230.866,-162.979C-227.02,-164.213 -223.132,-165.434 -219.31,-166.607L-218.43,-163.74C-222.24,-162.57 -226.115,-161.353 -229.949,-160.123M145.792,-157.655C142.444,-159.793 138.994,-161.893 135.538,-163.898L137.042,-166.494C140.536,-164.467 144.023,-162.344 147.407,-160.184L145.792,-157.655ZM-246.187,-154.745L-247.156,-157.585C-243.362,-158.88 -239.497,-160.172 -235.667,-161.424L-234.735,-158.573C-238.552,-157.325 -242.405,-156.037 -246.187,-154.745M-262.318,-149.059L-263.344,-151.879C-259.618,-153.234 -255.777,-154.6 -251.927,-155.939L-250.942,-153.105C-254.778,-151.771 -258.605,-150.41 -262.318,-149.059M159.843,-148.07C156.625,-150.413 153.31,-152.718 149.987,-154.924L151.646,-157.424C155.005,-155.194 158.356,-152.863 161.608,-150.496L159.843,-148.07ZM-278.33,-143.036L-279.42,-145.831C-275.808,-147.24 -271.995,-148.689 -268.085,-150.137L-267.042,-147.325C-270.936,-145.881 -274.733,-144.438 -278.33,-143.036M173.285,-137.642C170.205,-140.184 167.034,-142.688 163.862,-145.086L165.671,-147.479C168.877,-145.056 172.081,-142.525 175.194,-139.957L173.285,-137.642ZM186.092,-126.436C183.138,-129.173 180.119,-131.861 177.119,-134.424L179.067,-136.706C182.099,-134.116 185.148,-131.401 188.131,-128.637L186.092,-126.436ZM198.269,-114.532C195.442,-117.441 192.572,-120.291 189.738,-123.002L191.812,-125.169C194.672,-122.433 197.568,-119.557 200.42,-116.623L198.269,-114.532ZM490.187,-104.713L488.21,-106.969C491.595,-109.935 494.833,-112.336 498.107,-114.309L499.655,-111.739C496.534,-109.859 493.437,-107.56 490.187,-104.713M209.863,-102.04C207.15,-105.092 204.416,-108.078 201.737,-110.913L203.917,-112.973C206.617,-110.116 209.373,-107.108 212.105,-104.032L209.863,-102.04ZM478.349,-92.642L476.09,-94.617C479.049,-98.003 481.786,-100.91 484.458,-103.502L486.547,-101.348C483.935,-98.814 481.253,-95.966 478.349,-92.642M220.97,-89.086C218.256,-92.354 215.707,-95.358 213.175,-98.27L215.439,-100.239C217.986,-97.309 220.55,-94.288 223.278,-91.003L220.97,-89.086ZM467.545,-79.458L465.184,-81.307C468.103,-85.035 470.522,-88.039 472.797,-90.761L475.099,-88.837C472.845,-86.139 470.445,-83.159 467.545,-79.458M231.742,-75.823C228.875,-79.414 226.467,-82.396 224.165,-85.21L226.487,-87.11C228.797,-84.287 231.211,-81.294 234.086,-77.694L231.742,-75.823ZM457.072,-65.913L454.699,-67.749C455.929,-69.337 457.146,-70.919 458.355,-72.489C459.607,-74.116 460.85,-75.729 462.084,-77.325L464.457,-75.489C463.224,-73.895 461.983,-72.284 460.732,-70.659C459.522,-69.087 458.303,-67.504 457.072,-65.913M242.39,-62.423C240.851,-64.356 239.301,-66.31 237.735,-68.284L234.875,-71.887L237.224,-73.753L240.085,-70.148C241.649,-68.176 243.199,-66.223 244.737,-64.293L242.39,-62.423ZM446.408,-52.453L444.089,-54.355C446.396,-57.168 448.787,-60.162 451.613,-63.776L453.976,-61.928C451.135,-58.295 448.73,-55.284 446.408,-52.453M253.199,-49.11C250.904,-51.859 248.398,-54.926 245.538,-58.487L247.877,-60.366C250.725,-56.82 253.219,-53.767 255.502,-51.032L253.199,-49.11ZM435.131,-39.446L432.929,-41.483C435.518,-44.281 438.119,-47.231 440.88,-50.502L443.172,-48.566C440.381,-45.26 437.751,-42.277 435.131,-39.446M264.527,-36.181C261.944,-38.959 259.305,-41.924 256.458,-45.25L258.738,-47.201C261.557,-43.907 264.169,-40.971 266.723,-38.224L264.527,-36.181ZM422.879,-27.287L420.87,-29.515C423.703,-32.069 426.602,-34.871 429.485,-37.843L431.638,-35.755C428.708,-32.734 425.761,-29.885 422.879,-27.287M276.799,-24.082C273.902,-26.665 271.03,-29.422 268.02,-32.512L270.168,-34.606C273.129,-31.567 275.952,-28.856 278.795,-26.32L276.799,-24.082ZM409.379,-16.482L407.657,-18.939C410.81,-21.148 413.991,-23.603 417.111,-26.235L419.045,-23.942C415.857,-21.253 412.605,-18.743 409.379,-16.482M290.417,-13.446C287.169,-15.623 283.884,-18.086 280.651,-20.766L282.566,-23.075C285.721,-20.46 288.924,-18.058 292.087,-15.938L290.417,-13.446ZM394.5,-7.609L393.168,-10.296C396.647,-12.021 400.13,-13.996 403.521,-16.166L405.138,-13.638C401.656,-11.41 398.077,-9.381 394.5,-7.609M305.553,-5.067C301.888,-6.687 298.239,-8.587 294.708,-10.714L296.257,-13.285C299.68,-11.222 303.215,-9.38 306.766,-7.811L305.553,-5.067ZM378.393,-1.235L377.53,-4.108C381.289,-5.238 385.039,-6.616 388.676,-8.205L389.876,-5.455C386.13,-3.819 382.267,-2.399 378.393,-1.235M321.967,0.43C317.981,-0.508 314.047,-1.708 310.274,-3.133L311.335,-5.94C314.987,-4.56 318.795,-3.399 322.655,-2.49L321.967,0.43ZM361.449,2.33L361.077,-0.646C365.029,-1.14 368.958,-1.865 372.753,-2.801L373.472,0.111C369.562,1.076 365.517,1.823 361.449,2.33M339.073,2.941C334.932,2.67 330.857,2.174 326.959,1.468L327.495,-1.483C331.28,-0.797 335.241,-0.316 339.269,-0.053L339.073,2.941ZM346.972,3.194C346.026,3.194 345.09,3.183 344.163,3.163L344.23,0.163C346.566,0.215 348.982,0.2 351.437,0.116C353.021,0.061 354.605,-0.028 356.146,-0.147L356.379,2.843C354.795,2.966 353.167,3.058 351.54,3.114C350.002,3.166 348.465,3.194 346.972,3.194" style="fill:rgb(228,228,228);fill-rule:nonzero;"/>
            </g>
        </g>
        <g transform="matrix(5.55556,0,0,5.55556,0,0)">
            <g transform="matrix(-0.421571,-0.906795,-0.906795,0.421571,802.926,2191.2)">
                <path d="M0.698,5.381L3.699,5.381C3.698,3.267 3.551,1.182 3.262,-0.814L0.292,-0.381C0.561,1.472 0.698,3.411 0.698,5.381" style="fill:rgb(228,228,228);fill-rule:nonzero;"/>
            </g>
        </g>
        <g transform="matrix(5.55556,0,0,5.55556,0,0)">
            <g transform="matrix(1,0,0,1,801.852,2182.57)">
                <path d="M0,14.748L11.517,5.205L-2.506,0L0,14.748Z" style="fill:rgb(228,228,228);fill-rule:nonzero;"/>
            </g>
        </g>
        <g transform="matrix(5.55556,0,0,5.55556,0,0)">
            <g transform="matrix(1,0,0,1,868.006,2355.9)">
                <path d="M0,-177.167L-0.119,-180.165C3.858,-180.322 7.924,-180.381 11.948,-180.355L11.927,-177.354C7.945,-177.383 3.93,-177.323 0,-177.167M28.806,-176.68C24.836,-176.963 20.829,-177.161 16.896,-177.269L16.977,-180.267C20.955,-180.159 25.006,-179.959 29.02,-179.672L28.806,-176.68ZM-16.847,-175.922L-17.172,-178.904C-13.209,-179.337 -9.162,-179.678 -5.143,-179.917L-4.964,-176.923C-8.935,-176.686 -12.933,-176.35 -16.847,-175.922M45.626,-174.969C41.67,-175.488 37.677,-175.93 33.76,-176.28L34.028,-179.269C37.986,-178.914 42.02,-178.468 46.017,-177.943L45.626,-174.969ZM-30.831,-173.974L-31.333,-176.931C-28.297,-177.446 -25.213,-177.908 -22.167,-178.306L-21.779,-175.331C-24.787,-174.938 -27.833,-174.481 -30.831,-173.974M62.364,-172.302C58.412,-173.04 54.441,-173.705 50.563,-174.28L51.002,-177.247C54.917,-176.668 58.926,-175.996 62.915,-175.251L62.364,-172.302ZM78.932,-168.776C75.021,-169.707 71.096,-170.572 67.269,-171.348L67.864,-174.287C71.725,-173.506 75.682,-172.634 79.626,-171.694L78.932,-168.776ZM95.308,-164.487C91.435,-165.591 87.552,-166.635 83.767,-167.591L84.501,-170.499C88.316,-169.536 92.228,-168.484 96.13,-167.372L95.308,-164.487ZM111.503,-159.521C107.662,-160.78 103.822,-161.981 100.091,-163.094L100.948,-165.969C104.705,-164.849 108.57,-163.64 112.437,-162.373L111.503,-159.521ZM127.512,-153.963C123.719,-155.352 119.923,-156.69 116.229,-157.943L117.194,-160.784C120.909,-159.523 124.728,-158.177 128.543,-156.781L127.512,-153.963ZM143.343,-147.892C139.585,-149.396 135.831,-150.855 132.186,-152.228L133.242,-155.034C136.907,-153.655 140.681,-152.188 144.458,-150.677L143.343,-147.892ZM159.006,-141.381C155.306,-142.974 151.591,-144.534 147.966,-146.021L149.103,-148.796C152.745,-147.304 156.476,-145.736 160.191,-144.137L159.006,-141.381ZM174.518,-134.496C170.839,-136.176 167.161,-137.822 163.584,-139.391L164.789,-142.139C168.38,-140.563 172.072,-138.911 175.764,-137.225L174.518,-134.496ZM189.892,-127.3C186.233,-129.051 182.586,-130.771 179.051,-132.409L180.312,-135.132C183.858,-133.486 187.518,-131.763 191.187,-130.005L189.892,-127.3ZM205.152,-119.846C201.568,-121.628 197.981,-123.392 194.393,-125.132L195.701,-127.831C199.3,-126.087 202.896,-124.319 206.488,-122.531L205.152,-119.846ZM220.361,-112.165C216.79,-113.993 213.215,-115.807 209.638,-117.604L210.985,-120.284C214.568,-118.484 218.149,-116.667 221.729,-114.835L220.361,-112.165ZM235.483,-104.334C231.932,-106.191 228.376,-108.038 224.819,-109.874L226.194,-112.54C229.757,-110.702 233.316,-108.853 236.874,-106.992L235.483,-104.334ZM250.541,-96.402C247.003,-98.277 243.463,-100.147 239.919,-102.01L241.315,-104.666C244.861,-102.802 248.405,-100.93 251.945,-99.053L250.541,-96.402ZM265.551,-88.417C262.022,-90.298 258.491,-92.18 254.958,-94.059L256.366,-96.707C259.901,-94.828 263.433,-92.946 266.963,-91.063L265.551,-88.417ZM280.544,-80.417L269.962,-86.063L271.374,-88.709L281.954,-83.065L280.544,-80.417ZM295.538,-72.453C292.012,-74.317 288.482,-76.191 284.951,-78.07L286.361,-80.719C289.889,-78.841 293.416,-76.968 296.94,-75.105L295.538,-72.453ZM310.559,-64.569C307.025,-66.409 303.488,-68.263 299.949,-70.127L301.348,-72.781C304.883,-70.919 308.414,-69.067 311.943,-67.23L310.559,-64.569ZM989.568,-61.508C985.583,-61.57 981.552,-61.605 977.587,-61.611L977.591,-64.611C981.57,-64.605 985.615,-64.57 989.615,-64.508L989.568,-61.508ZM960.622,-61.466L960.567,-64.466C964.59,-64.54 968.633,-64.586 972.583,-64.604L972.597,-61.604C968.66,-61.586 964.632,-61.54 960.622,-61.466M1006.53,-61.074C1002.55,-61.215 998.521,-61.329 994.559,-61.414L994.623,-64.414C998.6,-64.328 1002.64,-64.214 1006.64,-64.072L1006.53,-61.074ZM943.666,-60.978L943.549,-63.976C947.501,-64.13 951.542,-64.259 955.56,-64.356L955.634,-61.358C951.63,-61.26 947.604,-61.132 943.666,-60.978M1023.49,-60.31C1019.51,-60.528 1015.48,-60.721 1011.52,-60.884L1011.64,-63.882C1015.62,-63.718 1019.66,-63.524 1023.65,-63.306L1023.49,-60.31ZM926.723,-60.146L926.545,-63.141C930.493,-63.376 934.531,-63.586 938.546,-63.766L938.681,-60.77C934.68,-60.59 930.657,-60.38 926.723,-60.146M1040.42,-59.221C1036.45,-59.515 1032.42,-59.784 1028.47,-60.023L1028.65,-63.018C1032.62,-62.778 1036.65,-62.507 1040.64,-62.213L1040.42,-59.221ZM909.799,-58.974L909.562,-61.964C913.577,-62.282 917.609,-62.573 921.547,-62.83L921.742,-59.836C917.818,-59.581 913.8,-59.29 909.799,-58.974M1051.97,-58.329C1048.01,-58.697 1049.35,-58.526 1045.4,-58.84L1045.64,-61.83C1049.6,-61.516 1048.03,-61.635 1052.01,-61.267L1051.97,-58.329ZM892.9,-57.462L892.604,-60.447C896.565,-60.841 900.591,-61.213 904.569,-61.552L904.825,-58.563C900.86,-58.225 896.849,-57.854 892.9,-57.462M325.691,-56.781C322.131,-58.591 318.566,-60.42 315.001,-62.265L316.38,-64.929C319.939,-63.088 323.496,-61.263 327.051,-59.455L325.691,-56.781ZM876.035,-55.619L875.682,-58.598C879.683,-59.073 883.7,-59.523 887.622,-59.937L887.937,-56.953C884.027,-56.541 880.023,-56.092 876.035,-55.619M859.207,-53.456L858.797,-56.429C862.798,-56.979 866.806,-57.506 870.71,-57.992L871.081,-55.016C867.189,-54.53 863.194,-54.006 859.207,-53.456M842.419,-50.989L841.956,-53.954C845.947,-54.576 849.944,-55.174 853.838,-55.731L854.264,-52.763C850.382,-52.206 846.396,-51.609 842.419,-50.989M340.917,-49.162C337.334,-50.925 333.747,-52.712 330.159,-54.52L331.509,-57.199C335.089,-55.396 338.666,-53.612 342.241,-51.854L340.917,-49.162ZM825.672,-48.233L825.16,-51.189C829.103,-51.872 833.09,-52.537 837.011,-53.169L837.487,-50.208C833.578,-49.578 829.603,-48.913 825.672,-48.233M808.972,-45.214L808.415,-48.161C812.324,-48.898 816.262,-49.62 820.23,-50.325L820.756,-47.372C816.797,-46.669 812.869,-45.949 808.972,-45.214M792.311,-41.955L791.715,-44.895C795.614,-45.685 799.542,-46.462 803.498,-47.225L804.066,-44.279C800.119,-43.519 796.2,-42.743 792.311,-41.955M356.259,-41.769C352.761,-43.417 349.112,-45.163 345.416,-46.961L346.729,-49.658C350.413,-47.867 354.05,-46.125 357.538,-44.481L356.259,-41.769ZM775.689,-38.49L775.061,-41.424C778.95,-42.257 782.867,-43.081 786.812,-43.894L787.418,-40.956C783.48,-40.144 779.571,-39.321 775.689,-38.49M759.102,-34.853L758.446,-37.78C762.328,-38.649 766.235,-39.512 770.17,-40.367L770.807,-37.436C766.878,-36.582 762.977,-35.72 759.102,-34.853M371.74,-34.662C368.156,-36.261 364.475,-37.938 360.796,-39.646L362.06,-42.367C365.725,-40.665 369.393,-38.995 372.963,-37.402L371.74,-34.662ZM742.536,-31.087L741.862,-34.011C745.74,-34.903 749.64,-35.796 753.564,-36.683L754.227,-33.757C750.306,-32.87 746.41,-31.98 742.536,-31.087M387.388,-27.91C383.788,-29.408 380.066,-30.998 376.324,-32.636L377.527,-35.384C381.253,-33.754 384.958,-32.171 388.54,-30.68L387.388,-27.91ZM725.987,-27.236L725.304,-30.158C729.178,-31.065 733.072,-31.975 736.99,-32.883L737.668,-29.961C733.752,-29.053 729.859,-28.144 725.987,-27.236M709.443,-23.352L708.758,-26.271L720.437,-29.015L721.122,-26.095L709.443,-23.352ZM403.22,-21.591C399.577,-22.98 395.811,-24.465 392.023,-26.004L393.152,-28.783C396.92,-27.252 400.666,-25.775 404.288,-24.394L403.22,-21.591ZM692.887,-19.489L692.211,-22.412C696.088,-23.308 699.979,-24.216 703.891,-25.132L704.574,-22.21C700.661,-21.294 696.766,-20.386 692.887,-19.489M419.256,-15.788C415.529,-17.062 411.713,-18.42 407.914,-19.827L408.955,-22.64C412.731,-21.242 416.522,-19.892 420.226,-18.628L419.256,-15.788ZM676.308,-15.711L675.651,-18.639C679.535,-19.508 683.431,-20.394 687.342,-21.291L688.014,-18.367C684.097,-17.468 680.195,-16.582 676.308,-15.711M659.686,-12.079L659.062,-15.015C662.955,-15.841 666.858,-16.688 670.774,-17.554L671.421,-14.624C667.497,-13.757 663.586,-12.907 659.686,-12.079M435.509,-10.603C431.737,-11.719 427.87,-12.928 424.014,-14.195L424.951,-17.045C428.778,-15.787 432.617,-14.587 436.36,-13.48L435.509,-10.603ZM643.014,-8.667L642.436,-11.61C646.165,-12.343 650.115,-13.142 654.177,-13.987L654.788,-11.05C650.716,-10.202 646.754,-9.4 643.014,-8.667M451.981,-6.14C448.169,-7.073 444.249,-8.105 440.331,-9.208L441.144,-12.097C445.029,-11.003 448.916,-9.98 452.694,-9.054L451.981,-6.14ZM626.232,-5.536L625.713,-8.491C629.543,-9.165 633.515,-9.895 637.517,-10.658L638.079,-7.711C634.062,-6.945 630.077,-6.213 626.232,-5.536M609.399,-2.773L608.95,-5.74C612.794,-6.322 616.775,-6.961 620.784,-7.639L621.284,-4.682C617.259,-4 613.261,-3.358 609.399,-2.773M468.667,-2.521C464.803,-3.248 460.833,-4.076 456.868,-4.983L457.536,-7.907C461.464,-7.01 465.396,-6.189 469.222,-5.471L468.667,-2.521ZM592.517,-0.457L592.151,-3.436C595.99,-3.905 599.98,-4.436 604.013,-5.014L604.438,-2.044C600.386,-1.463 596.375,-0.93 592.517,-0.457M485.54,0.125L484.591,0.005C480.972,-0.461 477.278,-1.013 473.613,-1.637L474.115,-4.594C477.742,-3.978 481.395,-3.432 484.971,-2.971L485.917,-2.852L485.54,0.125ZM575.589,1.348L575.321,-1.641C579.199,-1.989 583.198,-2.396 587.206,-2.851L587.544,0.13C583.514,0.588 579.491,0.997 575.589,1.348M502.512,1.889C498.528,1.562 494.495,1.17 490.524,0.721L490.86,-2.26C494.801,-1.814 498.804,-1.425 502.756,-1.102L502.512,1.889ZM558.633,2.572L558.471,-0.424C562.389,-0.636 566.393,-0.903 570.37,-1.221L570.608,1.77C566.605,2.089 562.576,2.358 558.633,2.572M519.541,2.913C515.549,2.759 511.503,2.542 507.515,2.267L507.722,-0.726C511.68,-0.453 515.695,-0.237 519.656,-0.085L519.541,2.913ZM541.612,3.166L541.567,0.166C545.503,0.106 549.516,-0.01 553.495,-0.182L553.624,2.816C549.617,2.988 545.576,3.105 541.612,3.166M535.248,3.214C531.677,3.214 528.08,3.167 524.557,3.075L524.635,0.076C528.132,0.168 531.703,0.214 535.248,0.214L536.591,0.212L536.597,3.212L535.248,3.214Z" style="fill:rgb(228,228,228);fill-rule:nonzero;"/>
            </g>
        </g>
        <g transform="matrix(5.55556,0,0,5.55556,0,0)">
            <g transform="matrix(1,0,0,1,837.717,2187.47)">
                <path d="M0,-14.706L-11.363,-4.98L2.741,0L0,-14.706Z" style="fill:rgb(228,228,228);fill-rule:nonzero;"/>
            </g>
        </g>
    </g>
</svg>
