<?xml version="1.0" encoding="UTF-8" standalone="no"?>
<!DOCTYPE svg PUBLIC "-//W3C//DTD SVG 1.1//EN" "http://www.w3.org/Graphics/SVG/1.1/DTD/svg11.dtd">
<svg width="100%" height="100%" viewBox="0 0 1555 242" version="1.1" xmlns="http://www.w3.org/2000/svg" xmlns:xlink="http://www.w3.org/1999/xlink" xml:space="preserve" xmlns:serif="http://www.serif.com/" style="fill-rule:evenodd;clip-rule:evenodd;stroke-linejoin:round;stroke-miterlimit:2;">
    <g transform="matrix(1,0,0,1,-4555.87,-19194.8)">
        <g transform="matrix(5.55556,0,0,5.55556,0,0)">
            <g transform="matrix(1,0,0,1,0,1174.19)">
                <path d="M835.454,2289.64L827.825,2289.64L827.825,2312.67L835.454,2312.67L835.454,2289.64ZM839.384,2312.72L839.384,2316.6L820.056,2316.6L820.056,2285.67L839.384,2285.67L839.384,2289.6L843.222,2289.6L843.222,2312.72L839.384,2312.72Z" style="fill:rgb(51,51,51);fill-rule:nonzero;"/>
            </g>
        </g>
        <g transform="matrix(5.55556,0,0,5.55556,0,0)">
            <g transform="matrix(1,0,0,1,862.596,3486.86)">
                <path d="M0,-15.35L-7.629,-15.35L-7.629,-7.767L-3.838,-7.767L-3.838,-11.558L0,-11.558L0,-15.35ZM3.931,0.047L3.931,3.931L-11.56,3.931L-11.56,0.047L-15.397,0.047L-15.397,-15.443L-11.56,-15.443L-11.56,-19.281L3.931,-19.281L3.931,-15.443L7.769,-15.443L7.769,-11.512L3.931,-11.512L3.931,-7.674L-3.792,-7.674L-3.792,-3.836L-7.629,-3.836L-7.629,0.002L3.838,0.002L3.838,-3.929L7.769,-3.929L7.769,0.047L3.931,0.047Z" style="fill:rgb(51,51,51);fill-rule:nonzero;"/>
            </g>
        </g>
        <g transform="matrix(5.55556,0,0,5.55556,0,0)">
            <g transform="matrix(1,0,0,1,893.715,3483.02)">
                <path d="M0,-7.674L0,0.002L-3.884,0.002L-3.884,7.769L-11.699,7.769L-11.699,0.002L-15.513,0.002L-15.513,-7.674L-19.375,-7.674L-19.375,-15.443L-11.606,-15.443L-11.606,-7.72L-7.745,-7.72L-7.745,-0.091L-3.931,-0.091L-3.931,-15.443L3.838,-15.443L3.838,-7.674L0,-7.674Z" style="fill:rgb(51,51,51);fill-rule:nonzero;"/>
            </g>
        </g>
        <g transform="matrix(5.55556,0,0,5.55556,0,0)">
            <g transform="matrix(1,0,0,1,0,1174.19)">
                <path d="M916.88,2289.64L909.251,2289.64L909.251,2312.67L916.88,2312.67L916.88,2289.64ZM920.811,2312.72L920.811,2316.6L905.321,2316.6L905.321,2312.72L901.483,2312.72L901.483,2289.6L905.321,2289.6L905.321,2285.67L920.811,2285.67L920.811,2289.6L924.649,2289.6L924.649,2312.72L920.811,2312.72Z" style="fill:rgb(51,51,51);fill-rule:nonzero;"/>
            </g>
        </g>
        <g transform="matrix(5.55556,0,0,5.55556,0,0)">
            <g transform="matrix(1,0,0,1,0,1189.63)">
                <path d="M944.115,2281.88L936.486,2281.88L936.486,2297.23L944.115,2297.23L944.115,2281.88ZM948.045,2297.27L948.045,2301.16L936.485,2301.16L936.485,2308.88L928.717,2308.88L928.717,2277.95L948.045,2277.95L948.045,2281.78L951.883,2281.78L951.883,2297.27L948.045,2297.27Z" style="fill:rgb(51,51,51);fill-rule:nonzero;"/>
            </g>
        </g>
        <g transform="matrix(5.55556,0,0,5.55556,0,0)">
            <g transform="matrix(1,0,0,1,967.605,3471.46)">
                <path d="M0,15.444L0,19.328L-11.606,19.328L-11.606,15.398L-3.931,15.398L-3.931,11.606L-7.769,11.606L-7.769,7.768L-11.606,7.722L-11.606,-0.046L-7.769,-0.046L-7.769,-3.884L3.884,-3.884L3.884,0.047L-3.838,0.047L-3.838,3.838L0,3.838L0,7.675L3.884,7.63L3.884,15.444L0,15.444Z" style="fill:rgb(51,51,51);fill-rule:nonzero;"/>
            </g>
        </g>
        <g transform="matrix(5.55556,0,0,5.55556,0,0)">
            <g transform="matrix(1,0,0,1,980.802,3491.54)">
                <path d="M0,-35.768L10.72,-35.768L10.569,-10.52L10.67,-10.52L21.09,-35.768L31.76,-35.768L24.346,0L17.733,0L23.645,-28.554L23.544,-28.554L11.271,0L5.66,0L5.21,-28.554L5.109,-28.554L-0.802,0L-7.414,0L0,-35.768Z" style="fill:rgb(51,51,51);fill-rule:nonzero;"/>
            </g>
        </g>
        <g transform="matrix(5.55556,0,0,5.55556,0,0)">
            <g transform="matrix(1,0,0,1,1019.47,3469.24)">
                <path d="M0,8.816L7.014,8.816L6.913,-7.264L6.812,-7.264L0,8.816ZM3.707,-13.476L12.624,-13.476L14.678,22.292L7.164,22.292L7.063,14.727L-2.454,14.727L-5.66,22.292L-13.175,22.292L3.707,-13.476Z" style="fill:rgb(51,51,51);fill-rule:nonzero;"/>
            </g>
        </g>
        <g transform="matrix(5.55556,0,0,5.55556,0,0)">
            <g transform="matrix(1,0,0,1,1046.52,3475.91)">
                <path d="M0,-4.509L3.006,-4.509C6.463,-4.509 8.717,-6.011 9.519,-9.869C10.22,-13.175 8.917,-14.828 5.561,-14.828L2.154,-14.828L0,-4.509ZM-3.957,-20.138L9.368,-20.138C15.329,-20.138 18.234,-17.083 16.982,-10.921C15.98,-6.112 13.426,-2.956 9.168,-2.104L9.168,-2.004C13.977,-1.353 14.077,1.352 12.624,8.916C11.873,12.724 11.723,14.577 12.925,15.328L12.875,15.629L5.06,15.629C4.509,14.627 4.659,13.275 4.909,11.872L6.162,5.009C6.612,2.203 5.761,0.501 2.806,0.501L-1.052,0.501L-4.157,15.629L-11.371,15.629L-3.957,-20.138Z" style="fill:rgb(51,51,51);fill-rule:nonzero;"/>
            </g>
        </g>
        <g transform="matrix(5.55556,0,0,5.55556,0,0)">
            <g transform="matrix(0.202966,-0.979186,-0.979186,-0.202966,1084.14,3484.44)">
                <path d="M-11.682,21.416L24.846,21.416L26.31,14.352L-10.218,14.352L-11.682,21.416Z" style="fill:rgb(51,51,51);fill-rule:nonzero;"/>
            </g>
        </g>
        <g transform="matrix(5.55556,0,0,5.55556,0,0)">
            <g transform="matrix(1,0,0,1,1083.74,3460.38)">
                <path d="M0,26.55C4.258,26.55 5.711,22.893 7.715,13.275C9.719,3.707 9.769,0 5.511,0C1.202,0 -0.2,3.707 -2.204,13.275C-4.208,22.893 -4.258,26.55 0,26.55M6.612,-5.31C17.433,-5.31 17.232,2.404 14.929,13.275C12.624,24.145 9.769,31.86 -1.102,31.86C-11.922,31.86 -11.722,24.145 -9.418,13.275C-7.113,2.404 -4.258,-5.31 6.612,-5.31" style="fill:rgb(51,51,51);fill-rule:nonzero;"/>
            </g>
        </g>
    </g>
</svg>
