<?xml version="1.0" encoding="UTF-8" standalone="no"?><!DOCTYPE svg PUBLIC "-//W3C//DTD SVG 1.1//EN" "http://www.w3.org/Graphics/SVG/1.1/DTD/svg11.dtd"><svg width="100%" height="100%" viewBox="0 0 1920 667" version="1.1" xmlns="http://www.w3.org/2000/svg" xmlns:xlink="http://www.w3.org/1999/xlink" xml:space="preserve" xmlns:serif="http://www.serif.com/" style="fill-rule:evenodd;clip-rule:evenodd;stroke-linejoin:round;stroke-miterlimit:2;"><path d="M1624.11,0l-0,93.161l-127.436,0l-0,122.121l-404.888,0l-0,103.031l-116.1,0l-0,134.539l-975.687,0l-0,53.001l975.687,0l-0,79.669l743.907,0l-0,80.968l200.405,0l-0,-53l-147.405,0l-0,-97.273l146.228,0l-0,-53l-199.228,0l-0,69.306l-690.907,0l-0,-161.21l62.428,0l-0,96.681l394.579,0l-0,-53l-341.579,0l-0,-26.182l0.671,0l-0,-120.53l351.889,0l-0,87.296l421.486,0l-0,-52.999l-368.486,0l-0,-156.419l74.748,0l-0,96.714l295.06,0l-0,-53.001l-242.061,0l-0,-70.213l-0.311,0l-0,-66.659l240.779,0l-0,-53.001l-293.779,0Z" style="fill:#2895e5;fill-rule:nonzero;"/></svg>