<?xml version="1.0" encoding="UTF-8" standalone="no"?>
<!DOCTYPE svg PUBLIC "-//W3C//DTD SVG 1.1//EN" "http://www.w3.org/Graphics/SVG/1.1/DTD/svg11.dtd">
<svg width="100%" height="100%" viewBox="0 0 1667 1894" version="1.1" xmlns="http://www.w3.org/2000/svg" xmlns:xlink="http://www.w3.org/1999/xlink" xml:space="preserve" xmlns:serif="http://www.serif.com/" style="fill-rule:evenodd;clip-rule:evenodd;stroke-linejoin:round;stroke-miterlimit:2;">
    <g transform="matrix(4.16667,0,0,4.16667,-833.333,-729.167)">
        <g transform="matrix(12.5,0,0,12.5,0,0)">
            <path d="M38.06,26.151L38.06,37.624L48,31.891L48,20.406L38.06,26.151Z" style="fill:rgb(64,64,178);fill-rule:nonzero;"/>
        </g>
        <g transform="matrix(12.5,0,0,12.5,0,0)">
            <path d="M27.03,20.406L36.97,26.151L36.97,37.624L27.03,31.884L27.03,20.406ZM16,14L16,25.479L25.94,31.219L25.94,19.739L16,14ZM27.03,44.624L36.97,50.364L36.97,38.884L27.03,33.145L27.03,44.625L27.03,44.624Z" style="fill:rgb(92,78,229);fill-rule:nonzero;"/>
        </g>
    </g>
</svg>
