<?xml version="1.0" encoding="UTF-8" standalone="no"?>
<!DOCTYPE svg PUBLIC "-//W3C//DTD SVG 1.1//EN" "http://www.w3.org/Graphics/SVG/1.1/DTD/svg11.dtd">
<svg width="100%" height="100%" viewBox="0 0 7120 1106" version="1.1" xmlns="http://www.w3.org/2000/svg" xmlns:xlink="http://www.w3.org/1999/xlink" xml:space="preserve" xmlns:serif="http://www.serif.com/" style="fill-rule:evenodd;clip-rule:evenodd;stroke-linejoin:round;stroke-miterlimit:2;">
    <g transform="matrix(0.75,0,0,0.75,-442.362,-629.533)">
        <g transform="matrix(5.55556,0,0,5.55556,0,0)">
            <g transform="matrix(1,0,0,1,0,-5226.93)">
                <path d="M200.165,5431.55L153.589,5431.55L153.589,5572.13L200.165,5572.13L200.165,5431.55ZM224.161,5572.41L224.161,5596.12L106.167,5596.12L106.167,5407.27L224.161,5407.27L224.161,5431.27L247.591,5431.27L247.591,5572.41L224.161,5572.41Z" style="fill:rgb(224,225,224);fill-rule:nonzero;"/>
            </g>
        </g>
        <g transform="matrix(5.55556,0,0,5.55556,0,0)">
            <g transform="matrix(1,0,0,1,365.863,345.19)">
                <path d="M0,-93.712L-46.576,-93.712L-46.576,-47.419L-23.43,-47.419L-23.43,-70.566L0,-70.566L0,-93.712ZM23.996,0.287L23.996,23.996L-70.569,23.996L-70.569,0.287L-93.999,0.287L-93.999,-94.278L-70.569,-94.278L-70.569,-117.708L23.996,-117.708L23.996,-94.278L47.426,-94.278L47.426,-70.282L23.996,-70.282L23.996,-46.853L-23.146,-46.853L-23.146,-23.423L-46.576,-23.423L-46.576,0.007L23.43,0.007L23.43,-23.989L47.426,-23.989L47.426,0.287L23.996,0.287Z" style="fill:rgb(224,225,224);fill-rule:nonzero;"/>
            </g>
        </g>
        <g transform="matrix(5.55556,0,0,5.55556,0,0)">
            <g transform="matrix(1,0,0,1,555.84,321.761)">
                <path d="M0,-46.853L0,0.006L-23.713,0.006L-23.713,47.426L-71.419,47.426L-71.419,0.006L-94.705,0.006L-94.705,-46.853L-118.278,-46.853L-118.278,-94.279L-70.852,-94.279L-70.852,-47.136L-47.283,-47.136L-47.283,-0.56L-23.996,-0.56L-23.996,-94.279L23.43,-94.279L23.43,-46.853L0,-46.853Z" style="fill:rgb(224,225,224);fill-rule:nonzero;"/>
            </g>
        </g>
        <g transform="matrix(5.55556,0,0,5.55556,0,0)">
            <g transform="matrix(1,0,0,1,0,-5226.93)">
                <path d="M697.262,5431.55L650.686,5431.55L650.686,5572.13L697.262,5572.13L697.262,5431.55ZM721.258,5572.41L721.258,5596.12L626.693,5596.12L626.693,5572.41L603.263,5572.41L603.263,5431.27L626.693,5431.27L626.693,5407.27L721.258,5407.27L721.258,5431.27L744.688,5431.27L744.688,5572.41L721.258,5572.41Z" style="fill:rgb(224,225,224);fill-rule:nonzero;"/>
            </g>
        </g>
        <g transform="matrix(5.55556,0,0,5.55556,0,0)">
            <g transform="matrix(1,0,0,1,0,-5132.65)">
                <path d="M863.523,5384.12L816.947,5384.12L816.947,5477.84L863.523,5477.84L863.523,5384.12ZM887.519,5478.12L887.519,5501.83L816.947,5501.83L816.947,5548.98L769.524,5548.98L769.524,5360.13L887.519,5360.13L887.519,5383.56L910.949,5383.56L910.949,5478.12L887.519,5478.12Z" style="fill:rgb(224,225,224);fill-rule:nonzero;"/>
            </g>
        </g>
        <g transform="matrix(5.55556,0,0,5.55556,0,0)">
            <g transform="matrix(1,0,0,1,1006.93,251.192)">
                <path d="M0,94.285L0,117.995L-70.855,117.995L-70.855,94.005L-23.996,94.005L-23.996,70.855L-47.426,70.855L-47.426,47.426L-70.855,47.146L-70.855,-0.28L-47.426,-0.28L-47.426,-23.71L23.71,-23.71L23.71,0.286L-23.433,0.286L-23.433,23.433L0,23.433L0,46.86L23.71,46.579L23.71,94.285L0,94.285Z" style="fill:rgb(224,225,224);fill-rule:nonzero;"/>
            </g>
        </g>
        <g transform="matrix(5.55556,0,0,5.55556,0,0)">
            <g transform="matrix(1,0,0,1,1087.49,373.724)">
                <path d="M0,-218.355L65.442,-218.355L64.524,-64.22L65.138,-64.22L128.75,-218.355L193.888,-218.355L148.626,0L108.259,0L144.346,-174.315L143.732,-174.315L68.804,0L34.554,0L31.806,-174.315L31.192,-174.315L-4.895,0L-45.262,0L0,-218.355Z" style="fill:rgb(51,51,51);fill-rule:nonzero;"/>
            </g>
        </g>
        <g transform="matrix(5.55556,0,0,5.55556,0,0)">
            <g transform="matrix(1,0,0,1,1323.57,237.635)">
                <path d="M0,53.823L42.817,53.823L42.203,-44.344L41.589,-44.344L0,53.823ZM22.631,-82.266L77.068,-82.266L89.605,136.089L43.735,136.089L43.121,89.909L-14.982,89.909L-34.554,136.089L-80.43,136.089L22.631,-82.266Z" style="fill:rgb(51,51,51);fill-rule:nonzero;"/>
            </g>
        </g>
        <g transform="matrix(5.55556,0,0,5.55556,0,0)">
            <g transform="matrix(1,0,0,1,1488.71,278.308)">
                <path d="M0,-27.525L18.35,-27.525C39.455,-27.525 53.215,-36.697 58.109,-60.246C62.39,-80.429 54.437,-90.523 33.946,-90.523L13.152,-90.523L0,-27.525ZM-24.157,-122.94L57.191,-122.94C93.582,-122.94 111.318,-104.285 103.675,-66.67C97.558,-37.311 81.962,-18.043 55.969,-12.844L55.969,-12.233C85.325,-8.256 85.939,8.258 77.068,54.434C72.483,77.679 71.565,88.995 78.904,93.579L78.6,95.415L30.888,95.415C27.525,89.299 28.443,81.041 29.97,72.48L37.619,30.581C40.367,13.453 35.168,3.059 17.128,3.059L-6.421,3.059L-25.379,95.415L-69.419,95.415L-24.157,-122.94Z" style="fill:rgb(51,51,51);fill-rule:nonzero;"/>
            </g>
        </g>
        <g transform="matrix(5.55556,0,0,5.55556,0,0)">
            <g transform="matrix(0.202972,-0.979185,-0.979185,-0.202972,1718.36,330.427)">
                <path d="M-71.317,130.739L151.68,130.739L160.618,87.616L-62.379,87.616L-71.317,130.739Z" style="fill:rgb(51,51,51);fill-rule:nonzero;"/>
            </g>
        </g>
        <g transform="matrix(5.55556,0,0,5.55556,0,0)">
            <g transform="matrix(1,0,0,1,1715.92,183.502)">
                <path d="M0,162.088C25.993,162.088 34.864,139.761 47.098,81.044C59.331,22.634 59.635,0.003 33.642,0.003C7.339,0.003 -1.222,22.634 -13.456,81.044C-25.689,139.761 -25.993,162.088 0,162.088M40.367,-32.414C106.423,-32.414 105.201,14.681 91.137,81.044C77.068,147.404 59.635,194.502 -6.725,194.502C-72.781,194.502 -71.559,147.404 -57.495,81.044C-43.425,14.681 -25.993,-32.414 40.367,-32.414" style="fill:rgb(51,51,51);fill-rule:nonzero;"/>
            </g>
        </g>
    </g>
</svg>
