<?xml version="1.0" encoding="UTF-8" standalone="no"?>
<!DOCTYPE svg PUBLIC "-//W3C//DTD SVG 1.1//EN" "http://www.w3.org/Graphics/SVG/1.1/DTD/svg11.dtd">
<svg width="100%" height="100%" viewBox="0 0 926 1372" version="1.1" xmlns="http://www.w3.org/2000/svg" xmlns:xlink="http://www.w3.org/1999/xlink" xml:space="preserve" xmlns:serif="http://www.serif.com/" style="fill-rule:evenodd;clip-rule:evenodd;stroke-linejoin:round;stroke-miterlimit:2;">
    <g transform="matrix(1,0,0,1,-0.000555556,-29640.2)">
        <g transform="matrix(5.55556,0,0,5.55556,0,0)">
            <g transform="matrix(1,0,0,1,84.3871,5582.13)">
                <path d="M0,-246.899L0,-212.595L-45.989,-212.595L-45.989,-167.626L-84.387,-167.626L-84.387,-146.628L-45.989,-146.628L-45.989,-102.387L81.211,-102.387L81.211,-123.387L-24.988,-123.387L-24.988,-191.594L0.113,-191.594L0.113,-155.984L81.688,-155.984L81.688,-176.983L21.112,-176.983L21.112,-202.095L21,-202.095L21,-225.899L81.112,-225.899L81.112,-246.899L0,-246.899ZM34.456,-76.333L34.456,-50.814L-84.387,-50.814L-84.387,-29.814L34.456,-29.814L34.456,0L82.273,0L82.273,-20.999L55.457,-20.999L55.457,-55.333L81.449,-55.333L81.449,-76.333L34.456,-76.333Z" style="fill:rgb(70,71,71);fill-rule:nonzero;"/>
            </g>
        </g>
    </g>
</svg>
